<?xml version="1.0" encoding="utf-8"?>
<!-- Generator: Adobe Illustrator 18.1.0, SVG Export Plug-In . SVG Version: 6.00 Build 0)  -->
<svg version="1.1" id="Layer_1" xmlns="http://www.w3.org/2000/svg" xmlns:xlink="http://www.w3.org/1999/xlink" x="0px" y="0px"
	 viewBox="0 0 113.1 26.7" enable-background="new 0 0 113.1 26.7" xml:space="preserve">
<path fill="#4D4F61" d="M17.6,7.8C16.9,8,16.2,7.6,16,7c-0.9-2.2-3.1-3.5-5.7-3.5C7.2,3.5,4.9,5,4.9,7.4c0,2.6,3.3,3.5,6.5,4.4
	c3.4,1,7.9,2.5,7.9,7.1c0,4-3.5,7-8.7,7c-4.5,0-7.5-2.3-8.7-5.6c-0.3-0.8,0.2-1.6,0.9-1.8l0,0c0.7-0.2,1.4,0.2,1.6,0.9
	c0.8,2.2,2.9,4,6.3,4c3.6,0,5.7-1.9,5.7-4.4c0-3.5-4.1-4.2-7.5-5.3c-2.7-0.9-6.7-2.1-6.7-6.2C2.2,3.8,5.7,1,10.5,1
	c3.7,0,6.8,1.9,8.1,4.9C18.8,6.7,18.4,7.6,17.6,7.8L17.6,7.8z"/>
<path fill="#4D4F61" d="M26.2,24V2.9c0-0.8,0.6-1.4,1.4-1.4l0,0c0.8,0,1.4,0.6,1.4,1.4V24c0,0.8-0.6,1.4-1.4,1.4l0,0
	C26.8,25.4,26.2,24.8,26.2,24z"/>
<path fill="#4D4F61" d="M54.6,2.9L54.6,2.9c0,0.7-0.6,1.3-1.3,1.3H47c-0.2,0-0.4,0.2-0.4,0.4v19.5c0,0.7-0.6,1.3-1.3,1.3h-0.1
	c-0.7,0-1.3-0.6-1.3-1.3V4.6c0-0.2-0.2-0.4-0.4-0.4h-6.3c-0.7,0-1.3-0.6-1.3-1.3l0,0c0-0.7,0.6-1.3,1.3-1.3h16.1
	C54.1,1.6,54.6,2.2,54.6,2.9z"/>
<path fill="#4D4F61" d="M77,24.1v0.1c0,0.7-0.5,1.3-1.3,1.3H62.1c-0.7,0-1.3-0.5-1.3-1.3V2.8c0-0.7,0.5-1.3,1.3-1.3h13.4
	c0.7,0,1.3,0.5,1.3,1.3v0.1c0,0.7-0.5,1.3-1.3,1.3H63.6v7.4h9.3c0.7,0,1.3,0.5,1.3,1.3l0,0c0,0.7-0.5,1.3-1.3,1.3h-9.3V23h12.1
	C76.5,22.8,77,23.3,77,24.1z"/>
<g>
	<g>
		<path fill="#4C4E60" d="M94.4,10.2c0.6,0.5,1.5,0.3,1.9-0.3l4.6-6.2c0.5-0.6,0.3-1.5-0.3-1.9c-0.6-0.5-1.5-0.3-1.9,0.3l-4.6,6.2
			C93.7,8.9,93.8,9.7,94.4,10.2z"/>
		<path fill="#4C4E60" d="M99.4,25.1c0.5,0.6,1.4,0.7,1.9,0.3c0.6-0.5,0.7-1.3,0.3-1.9l-5.3-7.1c-0.5-0.6-1.3-0.8-1.9-0.3
			s-0.8,1.3-0.3,1.9L99.4,25.1z"/>
		<path fill="#62BBE9" d="M93.1,12.3l-3.5-4.8l-4-5.4c-0.5-0.6-1.3-0.8-1.9-0.3s-0.8,1.3-0.3,1.9l6.3,8.5l0.1,0.1
			c0.4,0.5,0.4,1.2,0,1.7l-7,9.5c-0.5,0.6-0.3,1.5,0.3,1.9c0.6,0.5,1.5,0.3,1.9-0.3l8.2-11.2C93.4,13.6,93.6,12.9,93.1,12.3z"/>
	</g>
</g>
<g>
	<path fill="#4C4E60" d="M106.8,5.6h-0.4V2.3h-1.2V1.9h2.7v0.4h-1.1L106.8,5.6L106.8,5.6z"/>
	<path fill="#4C4E60" d="M110,5.6l-1.2-3.2h0c0,0.3,0,0.6,0,0.9v2.3h-0.4V1.9h0.6l1.1,3h0l1.2-3h0.6v3.6h-0.4V3.2c0-0.3,0-0.6,0-0.9
		h0.1l-1.3,3.2L110,5.6L110,5.6z"/>
</g>
</svg>
